#N canvas 434 212 425 387 10;
#X obj 6 36 inlet trig;
#X obj 215 331 line~;
#X obj 215 365 outlet~;
#X obj 103 83 t b;
#X obj 6 66 sel 0;
#X obj 103 190 f \$1;
#X obj 146 273 pack 0 \$2;
#X obj 215 157 f \$4;
#X obj 284 273 pack 0 \$5;
#X obj 215 273 pack 0 \$3;
#X obj 215 247 * \$1;
#X obj 215 182 * 0.01;
#X msg 6 103 stop;
#X text 4 122 If 0 \, stop;
#X text 4 136 attack and;
#X text 4 150 trigger release;
#X obj 215 120 del \$2;
#X text 294 88 Sustain %;
#X text 272 179 as % of attack;
#X obj 124 56 inlet;
#X obj 197 56 inlet;
#X obj 266 56 inlet;
#X obj 364 236 inlet;
#X text 121 36 Level;
#X text 121 26 Attack;
#X text 196 38 Speed;
#X text 196 28 Attack;
#X text 265 38 Speed;
#X text 265 28 Decay;
#X text 363 218 Speed;
#X text 363 208 Release;
#X text 62 200 level;
#X text 62 190 attack;
#X text 62 180 Store;
#X text 6 11 0 to release;
#X text 6 1 Send 1 to start attack \,;
#X text 272 165 Derive sustain level;
#X obj 295 106 inlet;
#X connect 0 0 4 0;
#X connect 1 0 2 0;
#X connect 3 0 5 0;
#X connect 3 0 16 0;
#X connect 4 0 8 0;
#X connect 4 0 12 0;
#X connect 4 1 3 0;
#X connect 5 0 6 0;
#X connect 6 0 1 0;
#X connect 7 0 11 0;
#X connect 8 0 1 0;
#X connect 9 0 1 0;
#X connect 10 0 9 0;
#X connect 11 0 10 0;
#X connect 12 0 16 0;
#X connect 16 0 7 0;
#X connect 19 0 5 1;
#X connect 19 0 10 1;
#X connect 20 0 6 1;
#X connect 20 0 16 1;
#X connect 21 0 9 1;
#X connect 22 0 8 1;
#X connect 37 0 7 0;
