#N canvas 528 47 227 207 10;
#X obj 7 -101 osc~ 440;
#X obj 7 -60 *~;
#X obj 7 -9 output~;
#X msg 73 -150 1;
#X msg 108 -150 0;
#X obj 95 -101 adsr~ 1 10 500 10 10;
#X connect 0 0 1 0;
#X connect 1 0 2 0;
#X connect 1 0 2 1;
#X connect 3 0 5 0;
#X connect 4 0 5 0;
#X connect 5 0 1 1;
