#N canvas 495 219 368 359 10;
#X obj 2 128 osc~;
#X floatatom 7 60 5 0 0 3 - - -;
#X floatatom 56 60 4 0 0 0 - - -;
#X obj 52 46 hsl 30 10 0 1 0 1 empty empty depth -2 -8 0 10 -262144
-1 -1 2900 1;
#X obj 5 46 hsl 30 10 0.05 200 1 1 empty empty rate -2 -8 0 10 -262144
-1 -1 0 1;
#X text 39 60 Hz;
#X floatatom 8 86 5 0 0 0 - - -;
#X text 39 86 Seconds;
#X obj 116 84 inv;
#X obj 4 178 *~ 0.5;
#X obj 34 213 *~;
#X obj 58 235 swap 1;
#X obj 34 273 +~;
#X obj 69 256 -;
#X obj 34 314 outlet~ signal;
#X obj 2 152 +~ 1;
#X text 77 54 %;
#X obj 105 59 * 100;
#X text 147 59 Convert depth to percent;
#X text 64 129 The rate controls this oscillator;
#X text 65 152 Move minimum value above 0;
#X text 65 177 Bring amplitude back down to between 1 and 0;
#X text 69 211 Multiply by depth of effect;
#X text 104 239 Subtract depth from 1 and sum with output;
#X text 104 254 so a depth of 0 has an output of 1;
#X text 103 28 These controls will display on the parent;
#X obj 2 0 inlet rate;
#X obj 72 0 inlet depth;
#X text 146 79 Calculate seconds and display;
#X text 146 92 (seconds = 1/Hz);
#X connect 0 0 15 0;
#X connect 1 0 8 0;
#X connect 3 0 10 1;
#X connect 3 0 11 0;
#X connect 3 0 17 0;
#X connect 4 0 1 0;
#X connect 4 0 0 0;
#X connect 8 0 6 0;
#X connect 9 0 10 0;
#X connect 10 0 12 0;
#X connect 11 0 13 0;
#X connect 11 1 13 1;
#X connect 12 0 14 0;
#X connect 13 0 12 1;
#X connect 15 0 9 0;
#X connect 17 0 2 0;
#X connect 26 0 4 0;
#X connect 27 0 3 0;
#X coords 0 -1 1 1 100 85 1 0 20;
