#N canvas 816 269 419 202 10;
#X obj 4 -10 osc~ 440;
#N canvas 0 22 450 278 (subpatch) 0;
#X array array1 100 float 2;
#X coords 0 1 99 -1 200 140 1 0 0;
#X restore 205 21 graph;
#X obj 90 63 tabwrite~ array1;
#X obj 8 126 output~;
#X obj 90 -11 loadbang;
#X obj 90 24 metro 100;
#X connect 0 0 2 0;
#X connect 0 0 3 0;
#X connect 0 0 3 1;
#X connect 4 0 5 0;
#X connect 5 0 2 0;
