#N canvas 689 89 224 205 10;
#X obj -21 -118 noise~;
#X obj -21 -75 *~;
#X obj -17 -12 output~;
#X obj -21 -46 lop~ 500;
#X obj 42 -160 ../BuildingControls/lfo~;
#X connect 0 0 1 0;
#X connect 1 0 3 0;
#X connect 3 0 2 0;
#X connect 3 0 2 1;
#X connect 4 0 1 1;
