#N canvas 551 142 450 300 10;
#X obj 39 123 *~;
#N canvas 553 473 450 300 wind 1;
#X obj -8 -173 noise~;
#X obj -2 -23 outlet~;
#N canvas 0 22 450 278 (subpatch) 0;
#X array wind 100 float 0;
#X coords 0 1 99 -1 200 140 1 0 0;
#X restore 203 -210 graph;
#X obj 204 -50 metro 500;
#X obj 164 -65 tgl 15 0 empty empty empty 17 7 0 10 -262144 -1 -1 0
1;
#X obj 204 -11 tabwrite~ wind;
#X obj 48 -78 *~;
#X obj 84 -190 noise~;
#X obj 84 -22 snapshot~;
#X floatatom 84 6 10 0 0 0 - - -;
#X obj 84 -95 +~ 0.2;
#X text 182 -67 Turn on "debugging";
#X obj 84 -167 lop~ 1;
#X text -9 -196 Wind signal;
#X text 83 25 Gust value;
#X text 76 -207 Gust control;
#X obj 84 -123 *~ 5;
#X obj -8 -144 bp~ 800 1;
#X obj 84 -147 lop~ 1;
#X connect 0 0 17 0;
#X connect 3 0 5 0;
#X connect 3 0 8 0;
#X connect 4 0 3 0;
#X connect 6 0 1 0;
#X connect 6 0 5 0;
#X connect 7 0 12 0;
#X connect 8 0 9 0;
#X connect 10 0 6 1;
#X connect 10 0 8 0;
#X connect 12 0 18 0;
#X connect 16 0 10 0;
#X connect 17 0 6 0;
#X connect 18 0 16 0;
#X restore 13 45 pd wind;
#X text 162 103 Press to start or swell the breeze;
#X msg 163 123 \; envelope 1;
#X msg 162 177 \; envelope 0;
#X obj 16 178 output~;
#X text 161 159 Press to fade the breeze out;
#X obj 91 45 receive envelope;
#X obj 91 71 ../BuildingControls/adsr~ 1 3000 10000 30 5000;
#X connect 0 0 5 0;
#X connect 0 0 5 1;
#X connect 1 0 0 0;
#X connect 7 0 8 0;
#X connect 8 0 0 1;
