#N canvas 523 99 561 514 10;
#X obj 118 343 output~;
#X obj 244 90 *~;
#X obj -54 306 *~;
#X obj 118 287 catch~ out;
#X obj -54 366 throw~ out;
#X obj 244 139 throw~ out;
#X obj -55 83 *~;
#X obj -55 137 throw~ out;
#X obj -40 34 noise~;
#X obj -55 107 *~;
#X obj -23 92 tgl 15 0 empty empty empty 17 7 0 10 -262144 -1 -1 0
1;
#X obj -54 337 *~;
#X obj -25 322 tgl 15 0 empty empty empty 17 7 0 10 -262144 -1 -1 0
1;
#X obj 244 114 *~;
#X obj 273 101 tgl 15 0 empty empty empty 17 7 0 10 -262144 -1 -1 0
1;
#X obj 307 66 osc~;
#X obj 307 29 r fundamental;
#X obj -21 231 r fundamental;
#X obj -21 279 osc~;
#X obj 244 306 *~;
#X obj 244 366 throw~ out;
#X obj 244 337 *~;
#X obj 273 322 tgl 15 0 empty empty empty 17 7 0 10 -262144 -1 -1 0
1;
#X obj 277 231 r fundamental;
#X obj 277 279 osc~;
#X obj 277 256 *~ 3.8;
#X obj -18 -20 f;
#X obj 244 182 r envelope;
#X obj 244 -24 r envelope;
#X obj -54 182 r envelope;
#X obj -56 -90 r envelope;
#X obj -56 -69 t f b;
#X text 243 -48 Fundamental;
#X text 18 181 Second partial;
#X text 34 -90 Sharp Attack;
#X text 316 180 Third partial;
#X obj -2 -45 delay 2;
#X text -5 90 play;
#X text 290 320 play;
#X text 290 99 play;
#X text -7 320 play;
#X obj -21 256 *~ 2.35;
#X msg 97 69 \; fundamental 2911 \; envelope 1;
#X obj 118 315 *~ 0.25;
#X obj -55 1 ../BuildingControls/adsr~ 1 0 5 0 0;
#X obj -54 209 ../BuildingControls/adsr~ 0.7 0 300 0 0;
#X obj 244 6 ../BuildingControls/adsr~ 0.75 0 1000 0 0;
#X obj 244 209 ../BuildingControls/adsr~ 0.6 0 200 0 0;
#X connect 1 0 13 0;
#X connect 2 0 11 0;
#X connect 3 0 43 0;
#X connect 6 0 9 0;
#X connect 8 0 6 1;
#X connect 9 0 7 0;
#X connect 10 0 9 1;
#X connect 11 0 4 0;
#X connect 12 0 11 1;
#X connect 13 0 5 0;
#X connect 14 0 13 1;
#X connect 15 0 1 1;
#X connect 16 0 15 0;
#X connect 17 0 41 0;
#X connect 18 0 2 1;
#X connect 19 0 21 0;
#X connect 21 0 20 0;
#X connect 22 0 21 1;
#X connect 23 0 25 0;
#X connect 24 0 19 1;
#X connect 25 0 24 0;
#X connect 26 0 44 0;
#X connect 27 0 47 0;
#X connect 28 0 46 0;
#X connect 29 0 45 0;
#X connect 30 0 31 0;
#X connect 31 0 26 1;
#X connect 31 0 44 0;
#X connect 31 1 36 0;
#X connect 36 0 26 0;
#X connect 41 0 18 0;
#X connect 43 0 0 0;
#X connect 43 0 0 1;
#X connect 44 0 6 0;
#X connect 45 0 2 0;
#X connect 46 0 1 0;
#X connect 47 0 19 0;
