#N canvas 537 154 266 261 10;
#X obj 61 100 osc~;
#X obj 61 66 mtof;
#X obj 61 158 *~;
#X msg 139 140 1;
#X msg 4 -7 60;
#X msg 95 128 0;
#X obj 95 95 delay 500;
#X obj 107 35 trigger float bang bang;
#X msg 42 -7 58;
#X msg 77 -7 56;
#X msg 113 -6 58;
#X msg 149 -6 60;
#X msg 189 -6 60;
#X msg 229 -5 60;
#X obj 52 196 output~;
#X connect 0 0 2 0;
#X connect 1 0 0 0;
#X connect 2 0 14 0;
#X connect 2 0 14 1;
#X connect 3 0 2 1;
#X connect 4 0 7 0;
#X connect 5 0 2 1;
#X connect 6 0 5 0;
#X connect 7 0 1 0;
#X connect 7 1 6 0;
#X connect 7 2 3 0;
#X connect 8 0 7 0;
#X connect 9 0 7 0;
#X connect 10 0 7 0;
#X connect 11 0 7 0;
#X connect 12 0 7 0;
#X connect 13 0 7 0;
