#N canvas 750 148 357 289 10;
#X obj 4 12 loadbang;
#N canvas 0 22 450 278 (subpatch) 0;
#X array square 1027 float 2;
#X coords 0 1 1027 -1 200 140 1 0 0;
#X restore 120 134 graph;
#X obj 4 235 output~;
#X obj 4 167 tabosc4~ square;
#X floatatom 4 130 5 20 20000 0 - - -;
#X msg 4 40 440 \; square sinesum 1024 1 0 0.333333 0 0.2 0 0.142857
0 0.111111 0 0.090909 0 0.076923 0 0.066667 0 0.058824 0 0.052632 0
0.047619 0 \; square normalize 1 \;;
#X connect 0 0 5 0;
#X connect 3 0 2 0;
#X connect 3 0 2 1;
#X connect 4 0 3 0;
#X connect 5 0 4 0;
