#N canvas 384 149 366 293 10;
#X obj 4 4 loadbang;
#N canvas 0 22 450 278 (subpatch) 0;
#X array triangle 1027 float 2;
#X coords 0 1 1027 -1 200 140 1 0 0;
#X restore 129 125 graph;
#X obj 4 226 output~;
#X floatatom 4 121 5 0 0 0 - - -;
#X msg 4 32 440 \; triangle sinesum 1024 1 0 -0.111111 0 0.04 0 -0.020408
0 0.012346 0 -0.008264 0 0.005917 0 -0.004444 0 0.00346 0 -0.00277
0 0.002268 0 \; triangle normalize 1 \;;
#X obj 4 158 tabosc4~ triangle;
#X connect 0 0 4 0;
#X connect 3 0 5 0;
#X connect 4 0 3 0;
#X connect 5 0 2 0;
#X connect 5 0 2 1;
