#N canvas 0 149 384 292 10;
#X obj 4 -10 loadbang;
#N canvas 0 22 450 278 (subpatch) 0;
#X array saw 1027 float 2;
#X coords 0 1 1027 -1 200 140 1 0 0;
#X restore 99 124 graph;
#X obj 4 225 output~;
#X msg 4 18 440 \; saw sinesum 1024 1 0.5 0.333333 0.25 0.2 0.166667
0.142857 0.125 0.111111 0.1 0.090909 0.083333 0.076923 0.071429 0.066667
0.0625 0.058824 0.055556 0.052632 0.05 0.047619 0.045455 \; saw normalize
1 \;;
#X obj 4 157 tabosc4~ saw;
#X floatatom 4 120 5 0 0 0 - - -;
#X connect 0 0 3 0;
#X connect 3 0 5 0;
#X connect 4 0 2 0;
#X connect 4 0 2 1;
#X connect 5 0 4 0;
