#N canvas 457 176 342 272 10;
#X msg 223 103 bang;
#N canvas 0 22 450 278 (subpatch) 0;
#X array soundfile 10591 float 0;
#X coords 0 1 10590 -1 200 140 1 0 0;
#X restore 13 103 graph;
#X obj 74 75 soundfiler;
#X obj 223 169 output~;
#X obj 74 19 openpanel;
#X obj 74 -7 bng 15 250 50 0 empty empty empty 17 7 0 10 -262144 -1
-1;
#X msg 74 46 read -resize \$1 soundfile;
#X obj 223 133 tabplay~ soundfile;
#X connect 0 0 7 0;
#X connect 4 0 6 0;
#X connect 5 0 4 0;
#X connect 6 0 2 0;
#X connect 7 0 3 0;
#X connect 7 0 3 1;
