#N canvas 382 83 743 521 10;
#X obj -208 -945 output~;
#X obj 279 -927 *~;
#X obj -19 -711 *~;
#X obj -208 -1028 catch~ out;
#X obj -19 -651 throw~ out;
#X obj 279 -878 throw~ out;
#X obj -20 -934 *~;
#X obj -20 -880 throw~ out;
#X obj -5 -983 noise~;
#X obj -20 -910 *~;
#X obj 12 -925 tgl 15 0 empty empty empty 17 7 0 10 -262144 -1 -1 0
0.25;
#X obj -19 -680 *~;
#X obj 10 -695 tgl 15 0 empty empty empty 17 7 0 10 -262144 -1 -1 0
0.25;
#X obj 279 -903 *~;
#X obj 308 -916 tgl 15 0 empty empty empty 17 7 0 10 -262144 -1 -1
0 0.25;
#X obj 342 -951 osc~;
#X obj 342 -988 r fundamental;
#X obj 14 -786 r fundamental;
#X obj 14 -738 osc~;
#X obj 279 -711 *~;
#X obj 279 -651 throw~ out;
#X obj 279 -680 *~;
#X obj 308 -695 tgl 15 0 empty empty empty 17 7 0 10 -262144 -1 -1
0 0.25;
#X obj 312 -786 r fundamental;
#X obj 312 -738 osc~;
#X obj 312 -761 *~ 3.8;
#X obj 17 -1037 f;
#X obj 279 -835 r envelope;
#X obj 279 -1041 r envelope;
#X obj -19 -835 r envelope;
#X obj -21 -1107 r envelope;
#X obj -21 -1086 t f b;
#X text 278 -1065 Fundamental;
#X text 53 -836 Second partial;
#X text 69 -1107 Sharp Attack;
#X text 351 -837 Third partial;
#X obj 33 -1062 delay 2;
#X text 30 -927 play;
#X text 325 -697 play;
#X text 325 -918 play;
#X text 28 -697 play;
#X obj 14 -761 *~ 2.35;
#X msg -208 -1106 \; fundamental 2911 \; envelope 1 \; record bang
\;;
#X obj -105 -999 r record;
#N canvas 44 185 329 216 recorder 0;
#X obj -47 153 writesf~ 1;
#X obj -8 27 t b b;
#X obj -8 86 del 1000;
#X msg -47 69 start;
#X msg -8 116 stop;
#X obj -8 1 inlet trigger;
#X obj -101 1 inlet~ signal;
#X msg 76 132 open -bytes 2 clink.wav;
#X connect 1 0 3 0;
#X connect 1 0 2 0;
#X connect 1 1 7 0;
#X connect 2 0 4 0;
#X connect 3 0 0 0;
#X connect 4 0 0 0;
#X connect 5 0 1 0;
#X connect 6 0 0 0;
#X connect 7 0 0 0;
#X restore -156 -968 pd recorder;
#X obj -20 -1016 ../BuildingControls/adsr~ 1 0 5 0 0;
#X obj 279 -1011 ../BuildingControls/adsr~ 0.75 0 1000 0 0;
#X obj 279 -808 ../BuildingControls/adsr~ 0.6 0 200 0 0;
#X obj -19 -808 ../BuildingControls/adsr~ 0.7 0 300 0 0;
#X obj -208 -998 *~ 0.25;
#X connect 1 0 13 0;
#X connect 2 0 11 0;
#X connect 3 0 49 0;
#X connect 6 0 9 0;
#X connect 8 0 6 1;
#X connect 9 0 7 0;
#X connect 10 0 9 1;
#X connect 11 0 4 0;
#X connect 12 0 11 1;
#X connect 13 0 5 0;
#X connect 14 0 13 1;
#X connect 15 0 1 1;
#X connect 16 0 15 0;
#X connect 17 0 41 0;
#X connect 18 0 2 1;
#X connect 19 0 21 0;
#X connect 21 0 20 0;
#X connect 22 0 21 1;
#X connect 23 0 25 0;
#X connect 24 0 19 1;
#X connect 25 0 24 0;
#X connect 26 0 45 0;
#X connect 27 0 47 0;
#X connect 28 0 46 0;
#X connect 29 0 48 0;
#X connect 30 0 31 0;
#X connect 31 0 26 1;
#X connect 31 0 45 0;
#X connect 31 1 36 0;
#X connect 36 0 26 0;
#X connect 41 0 18 0;
#X connect 43 0 44 1;
#X connect 45 0 6 0;
#X connect 46 0 1 0;
#X connect 47 0 19 0;
#X connect 48 0 2 0;
#X connect 49 0 44 0;
#X connect 49 0 0 0;
#X connect 49 0 0 1;
