#N canvas 566 265 423 354 10;
#X obj 9 193 osc~;
#X obj 9 145 +~;
#N canvas 933 422 300 152 modulator 0;
#X obj 24 5 inlet~;
#X obj 24 117 outlet~;
#X obj 24 61 osc~;
#X obj 24 89 *~;
#X obj 24 33 *~;
#X obj 186 5 inlet depth;
#X obj 75 5 inlet multiplier;
#X connect 0 0 4 0;
#X connect 2 0 3 0;
#X connect 3 0 1 0;
#X connect 4 0 2 0;
#X connect 5 0 3 1;
#X connect 6 0 4 1;
#X restore 24 35 pd modulator;
#X obj 24 121 *~;
#X obj 171 179 osc~;
#X obj 171 130 +~;
#N canvas 632 160 275 152 modulator 0;
#X obj 8 7 inlet~;
#X obj 8 119 outlet~;
#X obj 8 63 osc~;
#X obj 8 91 *~;
#X obj 8 35 *~;
#X obj 170 7 inlet depth;
#X obj 59 7 inlet multiplier;
#X connect 0 0 4 0;
#X connect 2 0 3 0;
#X connect 3 0 1 0;
#X connect 4 0 2 0;
#X connect 5 0 3 1;
#X connect 6 0 4 1;
#X restore 201 68 pd modulator;
#X obj 201 113 *~;
#X obj 9 -5 mtof;
#X obj 329 232 outlet~;
#X obj 9 -52 t f b;
#X text 284 114 Arg 3: decay of;
#X obj 114 -23 inlet mod1_tune;
#X obj 211 -23 inlet mod1_depth;
#X obj 219 7 inlet mod2_tune;
#X obj 316 7 inlet mod2_depth;
#X obj 9 223 *~;
#X obj 171 22 *~ \$1;
#X obj 171 207 *~;
#X text 283 128 second modulator;
#X text 69 219 Arg 4: decay of;
#X text 207 202 Arg 5: decay of;
#X text 51 137 first modulator;
#X text 206 216 second operator;
#X text 69 233 first operator;
#X obj 171 235 throw~ \$0-bell;
#X obj 9 251 throw~ \$0-bell;
#X obj 329 178 catch~ \$0-bell;
#X obj 329 205 *~ 0.5;
#X text 51 123 Arg 2: decay of;
#X obj 50 81 r \$0-env;
#X obj 55 179 r \$0-env;
#X obj 288 72 r \$0-env;
#X obj 209 159 r \$0-env;
#X text 123 61 octave;
#X text 123 50 operator;
#X obj 49 -8 s \$0-env;
#X msg 49 -35 1;
#X obj 9 -79 inlet midinote;
#X text 124 28 Arg 1:;
#X text 123 39 second;
#X obj 288 96 adsr~ 1 0 \$3 0 0 0;
#X obj 209 181 adsr~ 1 0 \$5 0 0 0;
#X obj 55 202 adsr~ 1 0 \$4 0 0 0;
#X obj 50 104 adsr~ 1 0 \$2 0 0 0;
#X connect 0 0 16 0;
#X connect 1 0 0 0;
#X connect 2 0 3 0;
#X connect 3 0 1 1;
#X connect 4 0 18 0;
#X connect 5 0 4 0;
#X connect 6 0 7 0;
#X connect 7 0 5 1;
#X connect 8 0 2 0;
#X connect 8 0 1 0;
#X connect 8 0 17 0;
#X connect 10 0 8 0;
#X connect 10 1 37 0;
#X connect 12 0 2 1;
#X connect 13 0 2 2;
#X connect 14 0 6 1;
#X connect 15 0 6 2;
#X connect 16 0 26 0;
#X connect 17 0 5 0;
#X connect 17 0 6 0;
#X connect 18 0 25 0;
#X connect 27 0 28 0;
#X connect 28 0 9 0;
#X connect 30 0 44 0;
#X connect 31 0 43 0;
#X connect 32 0 41 0;
#X connect 33 0 42 0;
#X connect 37 0 36 0;
#X connect 38 0 10 0;
#X connect 41 0 7 1;
#X connect 42 0 18 1;
#X connect 43 0 16 1;
#X connect 44 0 3 1;
