#N canvas 547 127 436 368 10;
#X obj 175 12 r mod1_tune;
#X obj 256 12 r mod1_depth;
#X obj 9 288 dac~;
#X obj 9 250 *~ 0.5;
#X obj 9 222 catch~ out;
#X obj 136 108 throw~ out;
#X obj 255 42 r mod2_tune;
#X obj 336 42 r mod2_depth;
#X obj 175 191 r mod1_tune;
#X obj 256 191 r mod1_depth;
#X obj 136 287 throw~ out;
#X obj 255 221 r mod2_tune;
#X obj 336 221 r mod2_depth;
#X obj 136 -20 r midinote1;
#X obj 136 166 r midinote2;
#X text 134 -37 Voice #1;
#X text 135 148 Voice #2;
#X text 8 88 Bell Tone;
#X text 8 -37 Synthy Tone;
#X msg 9 -20 \; mod1_tune 0 \; mod1_depth 0 \; mod2_tune 0.5 \; mod2_depth
10000 \; midinote1 64 \; midinote2 68 \;;
#X msg 9 106 \; mod1_tune 8 \; mod1_depth 5000 \; mod2_tune 2.5 \;
mod2_depth 12000 \; midinote1 64 \; midinote2 68 \;;
#X obj 136 80 bellvoice~ 4 10 630 500 650;
#X obj 136 259 bellvoice~ 4 10 630 500 650;
#X connect 0 0 21 1;
#X connect 1 0 21 2;
#X connect 3 0 2 0;
#X connect 3 0 2 1;
#X connect 4 0 3 0;
#X connect 6 0 21 3;
#X connect 7 0 21 4;
#X connect 8 0 22 1;
#X connect 9 0 22 2;
#X connect 11 0 22 3;
#X connect 12 0 22 4;
#X connect 13 0 21 0;
#X connect 14 0 22 0;
#X connect 21 0 5 0;
#X connect 22 0 10 0;
