#N canvas 916 79 354 479 10;
#X obj -154 56 soundfiler;
#N canvas 0 22 450 278 (subpatch) 0;
#X array clang 76760 float 2;
#X coords 0 1 76760 -1 200 140 1;
#X restore -155 119 graph;
#X msg -154 28 read -resize ../../sound/single-knife-hit.wav clang
;
#X obj -154 0 loadbang;
#X obj -31 399 output~;
#X obj -9 301 r pitch;
#X obj -31 273 r envelope;
#X obj 14 329 r duration;
#X text -152 262 Original;
#X text 83 363 Ringing Hit;
#X text 83 263 Clang;
#X text -152 363 Short Clang;
#X msg -150 279 \; pitch 1 \; envelope 0 \; envelope 1 \; duration
2000;
#N canvas 600 78 305 346 sword 1;
#X obj 24 159 tabread4~ clang;
#X obj 60 229 line~;
#X msg 230 211 1;
#X obj 24 246 *~;
#X msg 60 199 0 \$1;
#X obj 203 157 t f b;
#N canvas 97 224 308 304 randopan 0;
#X obj 37 17 inlet~ signal;
#X obj 38 267 outlet~ left;
#X obj 168 267 outlet~ right;
#X obj 38 229 *~;
#X obj 168 229 *~;
#X obj 183 72 random 100;
#X obj 183 99 / 100;
#X obj 183 17 r envelope;
#X obj 183 42 t b;
#X obj 183 161 -;
#X obj 183 132 swap 1;
#X obj 183 195 sqrt;
#X obj 53 196 sqrt;
#X connect 0 0 3 0;
#X connect 0 0 4 0;
#X connect 3 0 1 0;
#X connect 4 0 2 0;
#X connect 5 0 6 0;
#X connect 6 0 10 0;
#X connect 6 0 12 0;
#X connect 7 0 8 0;
#X connect 8 0 5 0;
#X connect 9 0 11 0;
#X connect 10 0 9 0;
#X connect 10 1 9 1;
#X connect 11 0 4 1;
#X connect 12 0 3 1;
#X restore 24 291 pd randopan;
#X obj 24 319 outlet~ left;
#X obj 121 319 outlet~ right;
#X obj 24 4 inlet envelope;
#X obj 131 4 inlet pitch;
#X obj 203 131 inlet duration;
#X obj 64 33 r samples;
#X obj 131 76 *;
#X obj 146 25 r samples;
#X obj 146 49 / 44.1;
#X text 188 62 into length;
#X text 188 49 Convert samples;
#X obj 24 108 ../BuildingControls/adsr~ 0 0 0 0 0;
#X connect 0 0 3 0;
#X connect 1 0 3 1;
#X connect 2 0 1 0;
#X connect 3 0 6 0;
#X connect 4 0 1 0;
#X connect 5 0 4 0;
#X connect 5 1 2 0;
#X connect 6 0 7 0;
#X connect 6 1 8 0;
#X connect 9 0 18 0;
#X connect 10 0 13 0;
#X connect 11 0 5 0;
#X connect 12 0 18 1;
#X connect 13 0 18 2;
#X connect 14 0 15 0;
#X connect 15 0 13 1;
#X connect 18 0 0 0;
#X restore -31 361 pd sword;
#X msg -150 379 \; pitch 2.02 \; envelope 0 \; envelope 1 \; duration
300;
#X msg 85 379 \; pitch 2 \; envelope 0 \; envelope 1 \; duration 4000
;
#X msg 85 279 \; pitch 2.01 \; envelope 0 \; envelope 1 \; duration
500;
#X obj -154 79 s samples \$1;
#X connect 0 0 17 0;
#X connect 2 0 0 0;
#X connect 3 0 2 0;
#X connect 5 0 13 1;
#X connect 6 0 13 0;
#X connect 7 0 13 2;
#X connect 13 0 4 0;
#X connect 13 1 4 1;
